<svg xmlns="http://www.w3.org/2000/svg" version="1.0" preserveAspectRatio="xMidYMid meet" viewBox="91 438.5 852.2 105.8">

<g transform="translate(0.000000,1024.000000) scale(0.100000,-0.100000)" fill="#000000" stroke="none">
<path d="M3993 5660 c-42 -107 -136 -343 -208 -525 -73 -181 -131 -331 -131 -332 1 -1 55 -3 121 -4 l120 -2 35 102 35 101 215 0 215 -1 40 -102 c22 -56 43 -101 48 -99 4 1 58 2 120 2 l114 0 -211 526 -211 525 -113 2 -112 2 -77 -195z m197 -102 c0 -6 29 -90 65 -185 36 -95 65 -175 65 -178 0 -3 -63 -5 -141 -5 -77 0 -139 4 -137 8 2 5 32 90 68 190 58 161 80 209 80 170z"/>
<path d="M910 5325 l0 -525 125 0 125 0 0 525 0 525 -125 0 -125 0 0 -525z"/>
<path d="M1599 5818 c-13 -18 -97 -134 -188 -257 -158 -215 -164 -224 -150 -247 8 -14 95 -134 194 -269 l180 -244 143 0 142 -1 -68 93 c-264 357 -323 441 -318 453 3 7 85 118 184 246 98 128 181 239 186 246 6 9 -24 12 -138 12 l-145 0 -22 -32z"/>
<path d="M2048 5500 l-3 -350 123 0 122 0 0 350 0 350 -120 0 -119 0 -3 -350z"/>
<path d="M2932 5325 l3 -527 110 0 110 0 3 175 2 175 148 4 c143 3 149 4 214 36 84 41 159 121 183 193 56 169 -21 352 -183 431 l-66 33 -263 3 -263 3 2 -526z m484 309 c112 -53 104 -231 -13 -280 -21 -9 -71 -14 -138 -14 l-105 0 0 155 0 155 111 0 c82 0 120 -4 145 -16z"/>
<path d="M4810 5326 l0 -526 115 0 115 0 0 175 0 175 79 0 c92 0 67 26 197 -207 l79 -143 128 0 129 0 -20 33 c-68 112 -202 340 -202 343 0 2 17 12 38 23 50 25 118 101 145 159 33 72 31 208 -5 283 -36 79 -89 133 -166 171 l-66 33 -283 3 -283 3 0 -525z m509 306 c58 -29 76 -63 76 -142 0 -59 -3 -72 -25 -95 -45 -48 -69 -55 -205 -55 l-125 0 0 155 0 155 123 0 c96 0 129 -4 156 -18z"/>
<path d="M5740 5750 l0 -100 155 0 155 0 -3 -425 -3 -425 114 0 113 0 -3 425 -3 425 153 0 152 0 0 100 0 100 -415 0 -415 0 0 -100z"/>
<path d="M6690 5325 l0 -525 117 0 116 0 -6 350 c-3 193 -5 350 -4 350 2 0 108 -157 237 -350 l235 -349 108 -1 107 0 0 525 0 525 -112 0 -111 0 6 -345 c3 -190 5 -345 4 -345 -1 0 -106 155 -232 345 l-230 344 -117 1 -118 0 0 -525z"/>
<path d="M7770 5325 l0 -525 350 0 350 0 0 100 0 100 -235 0 -235 0 0 110 0 110 208 0 207 0 -1 92 -2 93 -206 3 -206 2 0 120 0 120 230 0 230 0 0 100 0 100 -345 0 -345 0 0 -525z"/>
<path d="M8600 5326 l0 -526 115 0 115 0 0 175 0 175 74 0 74 0 47 -87 c26 -49 70 -127 97 -175 l50 -88 130 0 130 0 -14 23 c-28 43 -208 348 -208 352 0 3 17 13 38 24 50 25 118 101 145 159 31 67 30 195 -2 275 -29 73 -97 144 -176 183 l-60 29 -277 3 -278 3 0 -525z m510 302 c54 -37 73 -70 73 -130 1 -66 -24 -113 -75 -139 -31 -16 -59 -19 -158 -19 l-120 0 0 155 0 155 124 0 c111 0 126 -2 156 -22z"/>
<path d="M2437 5393 c-4 -3 -7 -51 -7 -105 l0 -98 180 0 180 0 0 105 0 105 -173 0 c-96 0 -177 -3 -180 -7z"/>
<path d="M2044 5081 c-2 -2 -4 -26 -4 -53 l0 -48 125 0 125 0 0 49 0 50 -121 3 c-66 2 -123 1 -125 -1z"/>
<path d="M2040 4855 l0 -55 125 0 125 0 0 55 0 55 -125 0 -125 0 0 -55z"/>
</g>
</svg>